<svg xmlns="http://www.w3.org/2000/svg" style="display: none;">

    <symbol id="aries" viewBox="0 0 64 64">
        <path d="M61.4422 8.18197C60.4573 6.50769 59.0652 5.10946 57.3953 4.11714C55.7254 3.12483 53.8318 2.57061 51.8904 2.50596C49.949 2.44131 48.0227 2.86833 46.2905 3.74736C44.5583 4.62639 43.0763 5.92892 41.9822 7.53397C37.564 14.0101 34.1952 21.1428 32.0002 28.669C29.8051 21.1428 26.4364 14.0101 22.0182 7.53397C20.9241 5.92892 19.4421 4.62639 17.7098 3.74736C15.9776 2.86833 14.0514 2.44131 12.1099 2.50596C10.1685 2.57061 8.27494 3.12483 6.60503 4.11714C4.93513 5.10946 3.54308 6.50769 2.55816 8.18197C1.52972 9.90836 0.97503 11.8756 0.950098 13.8849C0.925166 15.8942 1.43088 17.8746 2.41616 19.626L5.37816 24.957C5.5695 25.3014 5.82679 25.6047 6.13536 25.8497C6.44392 26.0946 6.79771 26.2764 7.17653 26.3846C7.55535 26.4928 7.95177 26.5254 8.34317 26.4804C8.73457 26.4354 9.11327 26.3138 9.45766 26.1225C9.80205 25.9311 10.1054 25.6738 10.3503 25.3653C10.5953 25.0567 10.7771 24.7029 10.8853 24.3241C10.9935 23.9453 11.0261 23.5489 10.9811 23.1575C10.9361 22.7661 10.8145 22.3874 10.6232 22.043L7.66116 16.712C6.95992 15.468 6.76738 14.0008 7.1239 12.618C7.48042 11.2352 8.35831 10.0441 9.57361 9.29422C10.7889 8.54435 12.2473 8.29397 13.6431 8.59555C15.0389 8.89713 16.2638 9.72726 17.0612 10.912C24.8556 22.3147 29.0176 35.8089 29.0002 49.621V58.5C29.0002 59.2956 29.3162 60.0587 29.8788 60.6213C30.4415 61.1839 31.2045 61.5 32.0002 61.5C32.7958 61.5 33.5589 61.1839 34.1215 60.6213C34.6841 60.0587 35.0002 59.2956 35.0002 58.5V49.621C34.9834 35.8094 39.1458 22.316 46.9402 10.914C47.7404 9.73594 48.9645 8.91221 50.3571 8.61447C51.7498 8.31673 53.2036 8.56795 54.4156 9.31578C55.6276 10.0636 56.5043 11.2503 56.8628 12.6286C57.2213 14.0069 57.0341 15.4703 56.3402 16.714L53.3782 22.045C53.1868 22.3894 53.0652 22.7681 53.0202 23.1595C52.9752 23.5509 53.0078 23.9473 53.116 24.3261C53.2242 24.7049 53.406 25.0587 53.651 25.3673C53.8959 25.6758 54.1993 25.9331 54.5437 26.1245C54.8881 26.3158 55.2668 26.4374 55.6582 26.4824C56.0496 26.5274 56.446 26.4948 56.8248 26.3866C57.2036 26.2784 57.5574 26.0966 57.866 25.8517C58.1745 25.6067 58.4318 25.3034 58.6232 24.959L61.5852 19.628C62.5707 17.8763 63.0764 15.8955 63.0513 13.8858C63.0262 11.876 62.4711 9.9085 61.4422 8.18197Z"/>
    </symbol>

    <symbol id="taurus" viewBox="0 0 64 64">
       <path d="M53 2.5C50.7465 2.50265 48.586 3.39903 46.9925 4.99252C45.399 6.586 44.5026 8.74647 44.5 11C44.5 14.3152 43.183 17.4946 40.8388 19.8388C38.4946 22.183 35.3152 23.5 32 23.5C28.6848 23.5 25.5054 22.183 23.1612 19.8388C20.817 17.4946 19.5 14.3152 19.5 11C19.5 8.74566 18.6045 6.58365 17.0104 4.98959C15.4163 3.39553 13.2543 2.5 11 2.5C8.74566 2.5 6.58365 3.39553 4.98959 4.98959C3.39553 6.58365 2.5 8.74566 2.5 11C2.5 11.7956 2.81607 12.5587 3.37868 13.1213C3.94129 13.6839 4.70435 14 5.5 14C6.29565 14 7.05871 13.6839 7.62132 13.1213C8.18393 12.5587 8.5 11.7956 8.5 11C8.5 10.337 8.76339 9.70107 9.23223 9.23223C9.70107 8.76339 10.337 8.5 11 8.5C11.663 8.5 12.2989 8.76339 12.7678 9.23223C13.2366 9.70107 13.5 10.337 13.5 11C13.514 14.0657 14.2855 17.0804 15.746 19.7759C17.2064 22.4713 19.3105 24.7641 21.871 26.45C18.3855 28.6462 15.7083 31.9158 14.2428 35.766C12.7773 39.6162 12.6029 43.8384 13.7459 47.7964C14.8889 51.7543 17.2873 55.2336 20.5798 57.7098C23.8722 60.1859 27.8803 61.5249 32 61.5249C36.1197 61.5249 40.1278 60.1859 43.4202 57.7098C46.7127 55.2336 49.1111 51.7543 50.2541 47.7964C51.3971 43.8384 51.2227 39.6162 49.7572 35.766C48.2917 31.9158 45.6145 28.6462 42.129 26.45C44.6895 24.7641 46.7936 22.4713 48.254 19.7759C49.7145 17.0804 50.486 14.0657 50.5 11C50.5 10.337 50.7634 9.70107 51.2322 9.23223C51.7011 8.76339 52.337 8.5 53 8.5C53.663 8.5 54.2989 8.76339 54.7678 9.23223C55.2366 9.70107 55.5 10.337 55.5 11C55.5 11.7956 55.8161 12.5587 56.3787 13.1213C56.9413 13.6839 57.7044 14 58.5 14C59.2956 14 60.0587 13.6839 60.6213 13.1213C61.1839 12.5587 61.5 11.7956 61.5 11C61.4974 8.74647 60.601 6.586 59.0075 4.99252C57.414 3.39903 55.2535 2.50265 53 2.5ZM32 55.5C29.4288 55.5 26.9154 54.7376 24.7776 53.3091C22.6397 51.8806 20.9735 49.8503 19.9896 47.4749C19.0056 45.0994 18.7482 42.4856 19.2498 39.9638C19.7514 37.4421 20.9895 35.1257 22.8076 33.3076C24.6257 31.4895 26.9421 30.2514 29.4638 29.7498C31.9856 29.2482 34.5994 29.5056 36.9749 30.4896C39.3503 31.4735 41.3806 33.1397 42.8091 35.2776C44.2376 37.4154 45 39.9288 45 42.5C44.996 45.9466 43.6251 49.2509 41.188 51.688C38.7509 54.1251 35.4466 55.496 32 55.5Z"/>
    </symbol>

    <symbol id="gemini" viewBox="0 0 64 64">
        <path d="M46.4998 48.224V15.776C51.8026 13.7599 56.6161 10.6392 60.6208 6.621C61.1833 6.05842 61.4992 5.2955 61.4992 4.5C61.4992 3.70451 61.1833 2.94159 60.6208 2.379C60.0497 1.83291 59.29 1.52814 58.4998 1.52814C57.7097 1.52814 56.95 1.83291 56.3788 2.379C49.908 8.83496 41.1405 12.4606 31.9998 12.4606C22.8592 12.4606 14.0917 8.83496 7.62085 2.379C7.04975 1.83291 6.29002 1.52814 5.49985 1.52814C4.70967 1.52814 3.94995 1.83291 3.37885 2.379C2.81643 2.94159 2.50049 3.70451 2.50049 4.5C2.50049 5.2955 2.81643 6.05842 3.37885 6.621C7.38362 10.6392 12.1971 13.7599 17.4998 15.776V48.224C12.1971 50.2401 7.38362 53.3608 3.37885 57.379C2.81643 57.9416 2.50049 58.7045 2.50049 59.5C2.50049 60.2955 2.81643 61.0584 3.37885 61.621C3.95042 62.1662 4.70997 62.4703 5.49985 62.4703C6.28973 62.4703 7.04928 62.1662 7.62085 61.621C14.0917 55.165 22.8592 51.5394 31.9998 51.5394C41.1405 51.5394 49.908 55.165 56.3788 61.621C56.9447 62.1675 57.7025 62.4699 58.4891 62.463C59.2756 62.4562 60.0281 62.1407 60.5843 61.5845C61.1405 61.0282 61.456 60.2758 61.4629 59.4892C61.4697 58.7026 61.1673 57.9448 60.6208 57.379C56.6161 53.3608 51.8026 50.2401 46.4998 48.224ZM40.4998 17.553V46.446C34.8952 45.2607 29.1045 45.2607 23.4998 46.446V17.553C29.1044 18.74 34.8953 18.74 40.4998 17.553Z"/>
    </symbol>

    <symbol id="cancer" viewBox="0 0 64 64">
        <path d="M60.341 33.073C59.073 31.5557 57.4872 30.3355 55.6957 29.4986C53.9041 28.6618 51.9506 28.2287 49.9733 28.23C47.9959 28.2313 46.043 28.6669 44.2526 29.5062C42.4621 30.3454 40.8779 31.5677 39.6119 33.0866C38.3459 34.6055 37.429 36.384 36.9261 38.2964C36.4232 40.2087 36.3465 42.2082 36.7014 44.1534C37.0564 46.0986 37.8343 47.9421 38.9803 49.5536C40.1262 51.165 41.6121 52.5051 43.333 53.479C37.8142 54.9719 31.9834 54.8537 26.5296 53.1386C21.0758 51.4234 16.227 48.1829 12.556 43.8C12.1746 43.3454 11.667 43.0141 11.0973 42.848C10.5276 42.6819 9.92146 42.6885 9.35552 42.8669C8.78957 43.0454 8.28926 43.3876 7.91786 43.8505C7.54646 44.3133 7.32066 44.8758 7.26902 45.467C7.23338 45.8595 7.27611 46.2551 7.39474 46.6309C7.51336 47.0067 7.70552 47.3551 7.96002 47.656C10.9913 51.2847 14.7122 54.2761 18.9073 56.4571C23.1024 58.6381 27.6885 59.9653 32.4 60.362C33.4747 60.456 34.5447 60.5027 35.61 60.502C44.0509 60.5132 52.2228 57.534 58.676 52.093C61.4154 49.7893 63.1292 46.493 63.4414 42.9273C63.7535 39.3616 62.6385 35.8177 60.341 33.073ZM50 49.251C48.5167 49.251 47.0666 48.8111 45.8332 47.987C44.5999 47.1629 43.6386 45.9916 43.0709 44.6211C42.5033 43.2507 42.3547 41.7427 42.6441 40.2878C42.9335 38.833 43.6478 37.4966 44.6967 36.4477C45.7456 35.3988 47.082 34.6845 48.5368 34.3951C49.9917 34.1057 51.4997 34.2542 52.8701 34.8219C54.2406 35.3896 55.4119 36.3509 56.236 37.5842C57.0602 38.8176 57.5 40.2676 57.5 41.751C57.4979 43.7395 56.707 45.6459 55.301 47.052C53.8949 48.458 51.9885 49.2489 50 49.251Z"/>
        <path d="M16.0232 35.75C18.5913 35.7459 21.105 35.0094 23.2692 33.6269C25.4335 32.2444 27.1585 30.2733 28.2418 27.9448C29.3252 25.6164 29.7219 23.0272 29.3854 20.4812C29.0489 17.9353 27.9932 15.5381 26.3422 13.571C25.3112 12.3407 24.0662 11.307 22.6672 10.52C28.1861 9.02698 34.017 9.14514 39.4709 10.8605C44.9247 12.5758 49.7735 15.8167 53.4442 20.2C53.8256 20.6546 54.3332 20.9859 54.9029 21.152C55.4726 21.3181 56.0788 21.3115 56.6447 21.1331C57.2106 20.9546 57.711 20.6123 58.0824 20.1495C58.4538 19.6867 58.6796 19.1241 58.7312 18.533C58.7668 18.1405 58.7241 17.7449 58.6055 17.3691C58.4869 16.9933 58.2947 16.6449 58.0402 16.344C51.8973 9.0391 43.1074 4.46941 33.5992 3.63759C24.0911 2.80576 14.6412 5.77974 7.32319 11.907C5.27793 13.6232 3.7875 15.9074 3.04035 18.4706C2.29319 21.0339 2.32288 23.7611 3.12565 26.3075C3.92842 28.8539 5.46822 31.1051 7.55035 32.7764C9.63249 34.4477 12.1634 35.4641 14.8232 35.697C15.2252 35.7323 15.6252 35.75 16.0232 35.75ZM8.50019 22.249C8.50019 20.7656 8.94006 19.3156 9.76417 18.0822C10.5883 16.8488 11.7596 15.8875 13.1301 15.3199C14.5005 14.7522 16.0085 14.6037 17.4634 14.8931C18.9182 15.1825 20.2546 15.8968 21.3035 16.9457C22.3524 17.9946 23.0667 19.331 23.3561 20.7858C23.6455 22.2407 23.4969 23.7487 22.9293 25.1191C22.3616 26.4896 21.4003 27.6609 20.167 28.485C18.9336 29.3091 17.4836 29.749 16.0002 29.749C14.0117 29.7469 12.1053 28.956 10.6992 27.5499C9.29317 26.1439 8.50231 24.2375 8.50019 22.249Z"/>
    </symbol>

    <symbol id="leo" viewBox="0 0 64 64">
        <path d="M63.043 52.41C62.7287 51.9066 62.2721 51.5077 61.731 51.2638C61.1899 51.02 60.5886 50.9421 60.0032 51.04C59.4178 51.138 58.8747 51.4074 58.4424 51.8141C58.0102 52.2208 57.7083 52.7466 57.575 53.325C57.3055 54.5138 56.6388 55.5753 55.685 56.3343C54.7311 57.0933 53.547 57.5045 52.328 57.5C51.2365 57.5001 50.1616 57.2323 49.1978 56.72C48.2339 56.2077 47.4106 55.4666 46.8 54.5618C46.1894 53.6571 45.8103 52.6162 45.6959 51.5307C45.5816 50.4452 45.7354 49.3482 46.144 48.336L54.512 27.6C55.7202 24.6069 56.1752 21.3629 55.837 18.153C55.4988 14.943 54.3778 11.8651 52.5724 9.18944C50.767 6.51382 48.3324 4.32229 45.4823 2.80723C42.6322 1.29217 39.4538 0.499909 36.226 0.49999C33.0289 0.47757 29.8756 1.24388 27.0453 2.73105C24.2151 4.21821 21.7952 6.38035 20 9.02599C18.2787 11.5221 17.1567 14.3818 16.7215 17.3825C16.2863 20.3831 16.5497 23.4438 17.491 26.326C16.5088 26.109 15.5059 25.9997 14.5 26C11.7311 26 9.02431 26.8211 6.72202 28.3594C4.41973 29.8978 2.62532 32.0843 1.56569 34.6424C0.506066 37.2006 0.228819 40.0155 0.769012 42.7313C1.30921 45.447 2.64258 47.9415 4.60051 49.8995C6.55845 51.8574 9.05301 53.1908 11.7687 53.731C14.4845 54.2712 17.2994 53.9939 19.8576 52.9343C22.4157 51.8747 24.6022 50.0803 26.1406 47.778C27.6789 45.4757 28.5 42.7689 28.5 40C28.5012 38.095 28.11 36.2102 27.351 34.463C27.3438 34.4372 27.3352 34.4118 27.325 34.387L23.593 25.563C22.7141 23.4862 22.3608 21.2247 22.5644 18.9788C22.7679 16.7328 23.522 14.5717 24.7599 12.6867C25.9978 10.8017 27.6813 9.25099 29.6614 8.17176C31.6415 7.09253 33.8572 6.51811 36.1122 6.49934C38.3673 6.48057 40.5922 7.01804 42.59 8.06416C44.5878 9.11029 46.2969 10.6328 47.566 12.4969C48.8351 14.3611 49.625 16.5093 49.8659 18.7516C50.1068 20.9938 49.7912 23.2608 48.947 25.352L40.579 46.088C39.8031 48.0112 39.511 50.0955 39.7285 52.1579C39.946 54.2203 40.6664 56.1977 41.8264 57.9168C42.9865 59.6358 44.5507 61.0439 46.3819 62.0173C48.2131 62.9908 50.2552 63.4999 52.329 63.5C54.906 63.5097 57.4092 62.6407 59.4259 61.0363C61.4425 59.432 62.8521 57.1882 63.422 54.675C63.5117 54.2911 63.5244 53.8933 63.4594 53.5045C63.3943 53.1157 63.2528 52.7437 63.043 52.41ZM22.5 40C22.5 41.5822 22.0308 43.129 21.1518 44.4445C20.2727 45.7601 19.0233 46.7855 17.5615 47.391C16.0997 47.9965 14.4911 48.155 12.9393 47.8463C11.3874 47.5376 9.96197 46.7757 8.84315 45.6568C7.72433 44.538 6.96241 43.1126 6.65372 41.5607C6.34504 40.0089 6.50347 38.4003 7.10897 36.9385C7.71447 35.4767 8.73985 34.2273 10.0554 33.3482C11.371 32.4692 12.9178 32 14.5 32C16.621 32.0024 18.6545 32.846 20.1542 34.3458C21.654 35.8455 22.4976 37.879 22.5 40Z"/>
    </symbol>

    <symbol id="virgo" viewBox="0 0 64 64">
        <path d="M55.29 29.792C54.4445 27.9065 53.0687 26.3077 51.3304 25.1905C49.5921 24.0733 47.5663 23.4859 45.5 23.5C44.8292 23.5001 44.1599 23.5606 43.5 23.681V17C43.502 14.9132 42.8816 12.8732 41.718 11.1409C40.5545 9.4086 38.9007 8.0627 36.9682 7.2753C35.0356 6.4879 32.9122 6.29478 30.8693 6.72064C28.8264 7.1465 26.957 8.17198 25.5 9.66595C24.537 8.67645 23.3877 7.88731 22.1183 7.34402C20.8489 6.80073 19.4846 6.51404 18.1039 6.50047C16.7232 6.4869 15.3535 6.74672 14.0737 7.26494C12.7939 7.78317 11.6293 8.54957 10.647 9.51995C9.71729 8.56541 8.60603 7.80649 7.37863 7.28784C6.15123 6.7692 4.83248 6.50131 3.5 6.49995C2.70435 6.49995 1.94129 6.81602 1.37868 7.37863C0.816071 7.94124 0.5 8.7043 0.5 9.49995C0.5 10.2956 0.816071 11.0587 1.37868 11.6213C1.94129 12.1839 2.70435 12.5 3.5 12.5C4.56087 12.5 5.57828 12.9214 6.32843 13.6715C7.07857 14.4217 7.5 15.4391 7.5 16.5V34.5C7.5 35.2956 7.81607 36.0587 8.37868 36.6213C8.94129 37.1839 9.70435 37.5 10.5 37.5C11.2956 37.5 12.0587 37.1839 12.6213 36.6213C13.1839 36.0587 13.5 35.2956 13.5 34.5V17C13.5 15.8065 13.9741 14.6619 14.818 13.818C15.6619 12.9741 16.8065 12.5 18 12.5C19.1935 12.5 20.3381 12.9741 21.182 13.818C22.0259 14.6619 22.5 15.8065 22.5 17V34.5C22.5 35.2956 22.8161 36.0587 23.3787 36.6213C23.9413 37.1839 24.7044 37.5 25.5 37.5C26.2956 37.5 27.0587 37.1839 27.6213 36.6213C28.1839 36.0587 28.5 35.2956 28.5 34.5V17C28.5 15.8065 28.9741 14.6619 29.818 13.818C30.6619 12.9741 31.8065 12.5 33 12.5C34.1935 12.5 35.3381 12.9741 36.182 13.818C37.0259 14.6619 37.5 15.8065 37.5 17V27.053C35.7494 29.0076 34.7703 31.5328 34.7456 34.1567C34.721 36.7806 35.6524 39.3237 37.366 41.311L40.207 44.589L44.177 40.008L41.9 37.382C41.3025 36.6919 40.9159 35.8447 40.7863 34.9412C40.6566 34.0377 40.7894 33.116 41.1687 32.2858C41.548 31.4556 42.1579 30.7519 42.9258 30.2585C43.6937 29.7651 44.5872 29.5028 45.5 29.5028C46.4128 29.5028 47.3063 29.7651 48.0742 30.2585C48.8421 30.7519 49.452 31.4556 49.8313 32.2858C50.2106 33.116 50.3434 34.0377 50.2137 34.9412C50.0841 35.8447 49.6975 36.6919 49.1 37.382L34.233 54.536C33.7239 55.1388 33.4727 55.9179 33.534 56.7046C33.5953 57.4912 33.964 58.2221 34.5603 58.7389C35.1566 59.2556 35.9325 59.5166 36.7199 59.4653C37.5072 59.4141 38.2427 59.0547 38.767 58.465L53.633 41.311C54.9968 39.7586 55.8796 37.8431 56.1738 35.7978C56.468 33.7525 56.1609 31.6658 55.29 29.792Z"/>
        <path d="M56.7682 54.536L50.7932 47.642L46.8232 52.222L52.2332 58.465C52.4912 58.7627 52.8053 59.0068 53.1576 59.1832C53.5099 59.3595 53.8935 59.4648 54.2865 59.4929C54.6795 59.5211 55.0741 59.4715 55.448 59.3471C55.8218 59.2228 56.1675 59.026 56.4652 58.768C56.763 58.51 57.0071 58.1959 57.1834 57.8436C57.3598 57.4913 57.4651 57.1077 57.4932 56.7147C57.5214 56.3217 57.4718 55.9271 57.3474 55.5532C57.223 55.1794 57.0262 54.8337 56.7682 54.536Z"/>    
    </symbol>

    <symbol id="libra" viewBox="0 0 64 64">
        <path d="M3.5 42.5H18.61C19.189 42.4996 19.7554 42.3317 20.2411 42.0165C20.7267 41.7014 21.1108 41.2524 21.347 40.7238C21.5831 40.1952 21.6613 39.6096 21.5721 39.0376C21.4828 38.4655 21.23 37.9315 20.844 37.5C18.9063 35.3441 17.6347 32.673 17.1831 29.8096C16.7316 26.9463 17.1193 24.0134 18.2995 21.3658C19.4797 18.7182 21.4017 16.4692 23.8332 14.891C26.2646 13.3128 29.1013 12.4729 32 12.4729C34.8987 12.4729 37.7354 13.3128 40.1668 14.891C42.5983 16.4692 44.5203 18.7182 45.7005 21.3658C46.8807 24.0134 47.2684 26.9463 46.8169 29.8096C46.3653 32.673 45.0937 35.3441 43.156 37.5C42.77 37.9315 42.5172 38.4655 42.4279 39.0376C42.3387 39.6096 42.4169 40.1952 42.653 40.7238C42.8892 41.2524 43.2733 41.7014 43.7589 42.0165C44.2446 42.3317 44.811 42.4996 45.39 42.5H60.5C61.2956 42.5 62.0587 42.1839 62.6213 41.6213C63.1839 41.0587 63.5 40.2957 63.5 39.5C63.5 38.7044 63.1839 37.9413 62.6213 37.3787C62.0587 36.8161 61.2956 36.5 60.5 36.5H50.962C52.4854 33.299 53.1737 29.7645 52.9628 26.2258C52.7518 22.687 51.6485 19.2593 49.7555 16.262C47.8626 13.2647 45.2416 10.7953 42.137 9.08412C39.0323 7.37289 35.545 6.47546 32 6.47546C28.455 6.47546 24.9677 7.37289 21.863 9.08412C18.7584 10.7953 16.1374 13.2647 14.2445 16.262C12.3515 19.2593 11.2482 22.687 11.0372 26.2258C10.8263 29.7645 11.5146 33.299 13.038 36.5H3.5C2.70435 36.5 1.94129 36.8161 1.37868 37.3787C0.81607 37.9413 0.5 38.7044 0.5 39.5C0.5 40.2957 0.81607 41.0587 1.37868 41.6213C1.94129 42.1839 2.70435 42.5 3.5 42.5Z"/>
        <path d="M60.5 51.5H3.5C2.70435 51.5 1.94129 51.8161 1.37868 52.3787C0.81607 52.9413 0.5 53.7044 0.5 54.5C0.5 55.2956 0.81607 56.0587 1.37868 56.6213C1.94129 57.1839 2.70435 57.5 3.5 57.5H60.5C61.2956 57.5 62.0587 57.1839 62.6213 56.6213C63.1839 56.0587 63.5 55.2956 63.5 54.5C63.5 53.7044 63.1839 52.9413 62.6213 52.3787C62.0587 51.8161 61.2956 51.5 60.5 51.5Z"/>
    </symbol>

    <symbol id="scorpio" viewBox="0 0 64 64">
        <path d="M62.621 46.379L53.621 37.379C53.0497 36.8333 52.29 36.5289 51.5 36.5289C50.71 36.5289 49.9503 36.8333 49.379 37.379C48.8166 37.9415 48.5006 38.7045 48.5006 39.5C48.5006 40.2954 48.8166 41.0584 49.379 41.621L53.257 45.5H48C46.8069 45.4986 45.6631 45.0241 44.8195 44.1805C43.9759 43.3368 43.5013 42.193 43.5 41V26C43.502 23.9132 42.8816 21.8732 41.718 20.1409C40.5545 18.4086 38.9007 17.0627 36.9682 16.2753C35.0356 15.4879 32.9122 15.2948 30.8693 15.7206C28.8264 16.1465 26.957 17.172 25.5 18.666C24.537 17.6764 23.3877 16.8873 22.1183 16.344C20.8489 15.8007 19.4846 15.514 18.1039 15.5005C16.7232 15.4869 15.3535 15.7467 14.0737 16.2649C12.7939 16.7832 11.6293 17.5496 10.647 18.52C9.71729 17.5654 8.60603 16.8065 7.37863 16.2878C6.15123 15.7692 4.83248 15.5013 3.5 15.5C2.70435 15.5 1.94129 15.816 1.37868 16.3786C0.81607 16.9412 0.5 17.7043 0.5 18.5C0.5 19.2956 0.81607 20.0587 1.37868 20.6213C1.94129 21.1839 2.70435 21.5 3.5 21.5C4.56087 21.5 5.57828 21.9214 6.32843 22.6715C7.07857 23.4217 7.5 24.4391 7.5 25.5V41.5C7.5 42.2956 7.81607 43.0587 8.37868 43.6213C8.94129 44.1839 9.70435 44.5 10.5 44.5C11.2956 44.5 12.0587 44.1839 12.6213 43.6213C13.1839 43.0587 13.5 42.2956 13.5 41.5V26C13.5 24.8065 13.9741 23.6619 14.818 22.818C15.6619 21.9741 16.8065 21.5 18 21.5C19.1935 21.5 20.3381 21.9741 21.182 22.818C22.0259 23.6619 22.5 24.8065 22.5 26V41.5C22.5 42.2956 22.8161 43.0587 23.3787 43.6213C23.9413 44.1839 24.7044 44.5 25.5 44.5C26.2956 44.5 27.0587 44.1839 27.6213 43.6213C28.1839 43.0587 28.5 42.2956 28.5 41.5V26C28.5 24.8065 28.9741 23.6619 29.818 22.818C30.6619 21.9741 31.8065 21.5 33 21.5C34.1935 21.5 35.3381 21.9741 36.182 22.818C37.0259 23.6619 37.5 24.8065 37.5 26V41C37.5032 43.7838 38.6104 46.4526 40.5789 48.4211C42.5473 50.3895 45.2162 51.4968 48 51.5H53.257L49.378 55.379C49.0957 55.6567 48.8713 55.9876 48.7175 56.3526C48.5638 56.7176 48.4838 57.1093 48.4823 57.5054C48.4807 57.9014 48.5575 58.2938 48.7084 58.66C48.8592 59.0261 49.0811 59.3588 49.3612 59.6388C49.6412 59.9188 49.9739 60.1406 50.3401 60.2913C50.7064 60.4421 51.0988 60.5189 51.4948 60.5172C51.8908 60.5155 52.2826 60.4355 52.6475 60.2817C53.0124 60.1278 53.3433 59.9033 53.621 59.621L62.621 50.621C63.1834 50.0584 63.4994 49.2954 63.4994 48.5C63.4994 47.7045 63.1834 46.9415 62.621 46.379Z"/>
    </symbol>

    <symbol id="sagittarius" viewBox="0 0 64 64">
        <path d="M35.0002 4.5C35.0002 5.29565 35.3163 6.05871 35.8789 6.62132C36.4415 7.18393 37.2046 7.5 38.0002 7.5H52.2582L18.6422 41.115L8.03521 30.509C7.47263 29.9466 6.7097 29.6306 5.91421 29.6306C5.11872 29.6306 4.35579 29.9466 3.79321 30.509C3.2308 31.0716 2.91485 31.8345 2.91485 32.63C2.91485 33.4255 3.2308 34.1884 3.79321 34.751L14.3932 45.351L2.30021 57.265C2.01806 57.5427 1.79368 57.8736 1.64 58.2385C1.48632 58.6034 1.40639 58.995 1.40481 59.391C1.40323 59.7869 1.48003 60.1792 1.63079 60.5453C1.78155 60.9114 2.00329 61.244 2.28321 61.524L2.47821 61.724C2.75863 62.0032 3.0915 62.2241 3.45766 62.3741C3.82381 62.5241 4.21603 62.6001 4.6117 62.5979C5.00738 62.5957 5.39871 62.5152 5.76316 62.3611C6.1276 62.207 6.45796 61.9823 6.73521 61.7L18.6452 49.6L29.2452 60.2C29.8078 60.7624 30.5707 61.0784 31.3662 61.0784C32.1617 61.0784 32.9246 60.7624 33.4872 60.2C34.0496 59.6374 34.3656 58.8745 34.3656 58.079C34.3656 57.2835 34.0496 56.5206 33.4872 55.958L22.8852 45.357L56.5002 11.743V26C56.5002 26.7956 56.8163 27.5587 57.3789 28.1213C57.9415 28.6839 58.7046 29 59.5002 29C60.2959 29 61.0589 28.6839 61.6215 28.1213C62.1841 27.5587 62.5002 26.7956 62.5002 26V4.5C62.5002 3.70435 62.1841 2.94129 61.6215 2.37868C61.0589 1.81607 60.2959 1.5 59.5002 1.5H38.0002C37.2046 1.5 36.4415 1.81607 35.8789 2.37868C35.3163 2.94129 35.0002 3.70435 35.0002 4.5Z"/>
    </symbol>

    <symbol id="capricorn" viewBox="0 0 64 64">
        <path d="M27.5 32C27.5036 35.3943 28.3121 38.7394 29.8592 41.7607C31.4063 44.7819 33.648 47.3931 36.4 49.38C36.4659 49.0913 36.4994 48.7961 36.5 48.5V41.127C34.5523 38.4824 33.5011 35.2844 33.5 32V16C33.5034 13.5308 32.7746 11.1161 31.4058 9.06108C30.037 7.00605 28.0896 5.40301 25.8099 4.4546C23.5301 3.5062 21.0203 3.25503 18.5978 3.73284C16.1753 4.21065 13.9489 5.39599 12.2 7.139C11.2619 6.00494 10.0858 5.09109 8.75515 4.46222C7.42448 3.83335 5.97178 3.50485 4.5 3.5C3.70435 3.5 2.94129 3.81607 2.37868 4.37868C1.81607 4.94129 1.5 5.70435 1.5 6.5C1.5 7.29565 1.81607 8.05871 2.37868 8.62132C2.94129 9.18393 3.70435 9.5 4.5 9.5C5.02529 9.5 5.54543 9.60346 6.03073 9.80448C6.51604 10.0055 6.95699 10.3001 7.32843 10.6716C7.69986 11.043 7.9945 11.484 8.19552 11.9693C8.39654 12.4546 8.5 12.9747 8.5 13.5V33.5C8.5 34.2956 8.81607 35.0587 9.37868 35.6213C9.94129 36.1839 10.7044 36.5 11.5 36.5C12.2956 36.5 13.0587 36.1839 13.6213 35.6213C14.1839 35.0587 14.5 34.2956 14.5 33.5V16C14.5 14.2761 15.1848 12.6228 16.4038 11.4038C17.6228 10.1848 19.2761 9.5 21 9.5C22.7239 9.5 24.3772 10.1848 25.5962 11.4038C26.8152 12.6228 27.5 14.2761 27.5 16V32Z"/>
        <path d="M50.5 29.5C47.3185 29.5034 44.2682 30.7688 42.0185 33.0185C39.7688 35.2682 38.5034 38.3185 38.5 41.5V48.5C38.4984 50.0908 37.8658 51.616 36.7409 52.7409C35.616 53.8658 34.0908 54.4984 32.5 54.5H30C29.2044 54.5 28.4413 54.8161 27.8787 55.3787C27.3161 55.9413 27 56.7044 27 57.5C27 58.2956 27.3161 59.0587 27.8787 59.6213C28.4413 60.1839 29.2044 60.5 30 60.5H32.5C35.6815 60.4966 38.7318 59.2312 40.9815 56.9815C43.2312 54.7318 44.4966 51.6815 44.5 48.5V41.5C44.5 40.3133 44.8519 39.1533 45.5112 38.1666C46.1705 37.1799 47.1075 36.4108 48.2039 35.9567C49.3003 35.5026 50.5067 35.3838 51.6705 35.6153C52.8344 35.8468 53.9035 36.4182 54.7426 37.2574C55.5818 38.0965 56.1532 39.1656 56.3847 40.3295C56.6162 41.4933 56.4974 42.6997 56.0433 43.7961C55.5892 44.8925 54.8201 45.8295 53.8334 46.4888C52.8467 47.1481 51.6867 47.5 50.5 47.5H49C48.162 47.4946 47.3259 47.4206 46.5 47.279V48.5C46.4967 50.1077 46.2145 51.7027 45.666 53.214C46.7682 53.3961 47.8829 53.4917 49 53.5H50.5C53.6826 53.5 56.7348 52.2357 58.9853 49.9853C61.2357 47.7348 62.5 44.6826 62.5 41.5C62.5 38.3174 61.2357 35.2652 58.9853 33.0147C56.7348 30.7643 53.6826 29.5 50.5 29.5Z"/>
    </symbol>

    <symbol id="aquarius" viewBox="0 0 64 64">
        <path d="M5.7142 27.615C5.88631 28.0455 6.15585 28.4303 6.50168 28.7391C6.8475 29.0479 7.26018 29.2723 7.70734 29.3948C8.1545 29.5173 8.62396 29.5344 9.07886 29.4449C9.53377 29.3554 9.96175 29.1617 10.3292 28.879L20.1872 21.3L22.7142 27.619C22.8864 28.0494 23.156 28.4341 23.5019 28.7428C23.8478 29.0515 24.2605 29.2758 24.7076 29.3982C25.1548 29.5205 25.6242 29.5376 26.079 29.4481C26.5339 29.3585 26.9618 29.1648 27.3292 28.882L37.1872 21.3L39.7142 27.619C39.8864 28.0494 40.156 28.4341 40.5019 28.7428C40.8478 29.0515 41.2605 29.2758 41.7076 29.3982C42.1548 29.5205 42.6242 29.5376 43.079 29.4481C43.5339 29.3585 43.9618 29.1648 44.3292 28.882L54.1872 21.3L56.7152 27.619C56.8616 27.9848 57.0785 28.3182 57.3537 28.6002C57.6289 28.8821 57.957 29.1071 58.3191 29.2622C58.6813 29.4174 59.0704 29.4997 59.4644 29.5045C59.8584 29.5093 60.2494 29.4364 60.6152 29.29C60.981 29.1437 61.3144 28.9267 61.5963 28.6515C61.8783 28.3763 62.1032 28.0483 62.2584 27.6861C62.4136 27.324 62.4959 26.9348 62.5007 26.5408C62.5054 26.1469 62.4326 25.7558 62.2862 25.39L58.2862 15.39C58.1141 14.9595 57.8445 14.5748 57.4987 14.266C57.1529 13.9572 56.7402 13.7327 56.2931 13.6103C55.8459 13.4878 55.3764 13.4706 54.9215 13.5601C54.4666 13.6496 54.0387 13.8433 53.6712 14.126L43.8132 21.709L41.2862 15.39C41.1141 14.9595 40.8445 14.5748 40.4987 14.266C40.1529 13.9572 39.7402 13.7327 39.2931 13.6103C38.8459 13.4878 38.3764 13.4706 37.9215 13.5601C37.4666 13.6496 37.0387 13.8433 36.6712 14.126L26.8132 21.709L24.2862 15.39C24.1141 14.9595 23.8445 14.5748 23.4987 14.266C23.1529 13.9572 22.7402 13.7327 22.2931 13.6103C21.8459 13.4878 21.3764 13.4706 20.9215 13.5601C20.4666 13.6496 20.0386 13.8433 19.6712 14.126L9.8132 21.706L7.2852 15.387C6.98961 14.6483 6.41267 14.0572 5.68127 13.7438C4.94988 13.4304 4.12396 13.4204 3.3852 13.716C2.64644 14.0116 2.05536 14.5886 1.74198 15.32C1.42861 16.0513 1.41861 16.8773 1.7142 17.616L5.7142 27.615Z"/>
        <path d="M58.2862 36.385C58.1141 35.9545 57.8445 35.5697 57.4987 35.2609C57.1529 34.9521 56.7402 34.7277 56.2931 34.6052C55.8459 34.4827 55.3764 34.4656 54.9215 34.5551C54.4666 34.6446 54.0387 34.8383 53.6712 35.121L43.8132 42.7L41.2862 36.381C41.114 35.9506 40.8444 35.5659 40.4985 35.2572C40.1526 34.9485 39.7399 34.7242 39.2928 34.6018C38.8456 34.4795 38.3762 34.4624 37.9214 34.5519C37.4665 34.6415 37.0386 34.8352 36.6712 35.118L26.8132 42.7L24.2862 36.381C24.114 35.9506 23.8444 35.5659 23.4985 35.2572C23.1526 34.9485 22.7399 34.7242 22.2928 34.6018C21.8456 34.4795 21.3762 34.4624 20.9214 34.5519C20.4665 34.6415 20.0386 34.8352 19.6712 35.118L9.8132 42.7L7.2852 36.385C7.13884 36.0192 6.92187 35.6858 6.64666 35.4038C6.37146 35.1219 6.04342 34.8969 5.68127 34.7418C5.31913 34.5866 4.92996 34.5043 4.536 34.4995C4.14204 34.4947 3.751 34.5676 3.3852 34.714C3.0194 34.8603 2.68601 35.0773 2.40407 35.3525C2.12213 35.6277 1.89715 35.9557 1.74198 36.3179C1.58682 36.68 1.5045 37.0692 1.49973 37.4632C1.49496 37.8571 1.56784 38.2482 1.7142 38.614L5.7142 48.614C5.88631 49.0445 6.15585 49.4292 6.50168 49.738C6.8475 50.0468 7.26018 50.2713 7.70734 50.3937C8.1545 50.5162 8.62396 50.5334 9.07886 50.4439C9.53377 50.3544 9.96175 50.1607 10.3292 49.878L20.1872 42.295L22.7142 48.614C22.8864 49.0444 23.156 49.429 23.5019 49.7377C23.8478 50.0464 24.2605 50.2707 24.7076 50.3931C25.1548 50.5155 25.6242 50.5326 26.079 50.443C26.5339 50.3535 26.9618 50.1597 27.3292 49.877L37.1872 42.295L39.7142 48.614C39.8864 49.0444 40.156 49.429 40.5019 49.7377C40.8478 50.0464 41.2605 50.2707 41.7076 50.3931C42.1548 50.5155 42.6242 50.5326 43.079 50.443C43.5339 50.3535 43.9618 50.1597 44.3292 49.877L54.1872 42.295L56.7152 48.614C57.0108 49.3527 57.5877 49.9438 58.3191 50.2572C59.0505 50.5706 59.8764 50.5806 60.6152 50.285C61.354 49.9894 61.945 49.4124 62.2584 48.681C62.5718 47.9497 62.5818 47.1237 62.2862 46.385L58.2862 36.385Z"/>
    </symbol>

    <symbol id="pisces" viewBox="0 0 64 64">
        <path d="M56.5 32C56.5 31.2044 56.1839 30.4413 55.6213 29.8787C55.0587 29.3161 54.2956 29 53.5 29H42.843C43.5417 20.1734 47.3629 11.8847 53.621 5.621C54.1675 5.05519 54.4699 4.29739 54.463 3.5108C54.4562 2.72421 54.1407 1.97177 53.5845 1.41554C53.0282 0.859319 52.2758 0.543813 51.4892 0.536977C50.7026 0.530142 49.9448 0.832525 49.379 1.379C41.9937 8.7661 37.5343 18.5784 36.826 29H27.174C26.4657 18.5784 22.0063 8.7661 14.621 1.379C14.3443 1.09247 14.0132 0.863922 13.6472 0.706695C13.2812 0.549468 12.8875 0.466709 12.4892 0.463248C12.0909 0.459787 11.6958 0.535692 11.3271 0.686534C10.9584 0.837377 10.6235 1.06014 10.3418 1.34181C10.0601 1.62349 9.83738 1.95845 9.68653 2.32714C9.53569 2.69583 9.45979 3.09087 9.46325 3.4892C9.46671 3.88754 9.54947 4.2812 9.7067 4.64721C9.86392 5.01322 10.0925 5.34426 10.379 5.621C16.6371 11.8847 20.4583 20.1734 21.157 29H10.5C9.70435 29 8.94129 29.3161 8.37868 29.8787C7.81607 30.4413 7.5 31.2044 7.5 32C7.5 32.7956 7.81607 33.5587 8.37868 34.1213C8.94129 34.6839 9.70435 35 10.5 35H21.157C20.4583 43.8266 16.6371 52.1153 10.379 58.379C9.83253 58.9448 9.53014 59.7026 9.53698 60.4892C9.54381 61.2758 9.85932 62.0282 10.4155 62.5845C10.9718 63.1407 11.7242 63.4562 12.5108 63.463C13.2974 63.4699 14.0552 63.1675 14.621 62.621C22.0061 55.2337 26.4654 45.4216 27.174 35H36.826C37.5346 45.4216 41.9939 55.2337 49.379 62.621C49.6557 62.9075 49.9868 63.1361 50.3528 63.2933C50.7188 63.4505 51.1125 63.5333 51.5108 63.5368C51.9091 63.5402 52.3042 63.4643 52.6729 63.3135C53.0416 63.1626 53.3765 62.9399 53.6582 62.6582C53.9399 62.3765 54.1626 62.0416 54.3135 61.6729C54.4643 61.3042 54.5402 60.9091 54.5368 60.5108C54.5333 60.1125 54.4505 59.7188 54.2933 59.3528C54.1361 58.9868 53.9075 58.6557 53.621 58.379C47.3629 52.1153 43.5417 43.8266 42.843 35H53.5C54.2956 35 55.0587 34.6839 55.6213 34.1213C56.1839 33.5587 56.5 32.7956 56.5 32Z"/>
    </symbol>


    <symbol id="arrow-down" viewBox="0 0 12 14" fill="#F8BBD0">
       <path d="M6 14.0001L0 8.0001L1.4 6.6001L6 11.1751L10.6 6.6001L12 8.0001L6 14.0001ZM6 8.0001L0 2.0001L1.4 0.600098L6 5.1751L10.6 0.600098L12 2.0001L6 8.0001Z"/>
    </symbol>

    <symbol id="mouse" viewBox="0 0 14 20" fill="#F8BBD0">
        <path d="M7 20C5.06667 20 3.41667 19.3167 2.05 17.95C0.683333 16.5833 0 14.9333 0 13V7C0 5.06667 0.683333 3.41667 2.05 2.05C3.41667 0.683333 5.06667 0 7 0C8.93333 0 10.5833 0.683333 11.95 2.05C13.3167 3.41667 14 5.06667 14 7V13C14 14.9333 13.3167 16.5833 11.95 17.95C10.5833 19.3167 8.93333 20 7 20ZM8 7H12C12 5.8 11.6208 4.74167 10.8625 3.825C10.1042 2.90833 9.15 2.33333 8 2.1V7ZM2 7H6V2.1C4.85 2.33333 3.89583 2.90833 3.1375 3.825C2.37917 4.74167 2 5.8 2 7ZM7 18C8.38333 18 9.5625 17.5125 10.5375 16.5375C11.5125 15.5625 12 14.3833 12 13V9H2V13C2 14.3833 2.4875 15.5625 3.4625 16.5375C4.4375 17.5125 5.61667 18 7 18Z"/>
    </symbol>

    <symbol id="telegram" viewBox="0 0 496 512" fill="#F8BBD0">
        <path d="M248 8C111 8 0 119 0 256S111 504 248 504 496 393 496 256 385 8 248 8zM363 176.7c-3.7 39.2-19.9 134.4-28.1 178.3-3.5 18.6-10.3 24.8-16.9 25.4-14.4 1.3-25.3-9.5-39.3-18.7-21.8-14.3-34.2-23.2-55.3-37.2-24.5-16.1-8.6-25 5.3-39.5 3.7-3.8 67.1-61.5 68.3-66.7 .2-.7 .3-3.1-1.2-4.4s-3.6-.8-5.1-.5q-3.3 .7-104.6 69.1-14.8 10.2-26.9 9.9c-8.9-.2-25.9-5-38.6-9.1-15.5-5-27.9-7.7-26.8-16.3q.8-6.7 18.5-13.7 108.4-47.2 144.6-62.3c68.9-28.6 83.2-33.6 92.5-33.8 2.1 0 6.6 .5 9.6 2.9a10.5 10.5 0 0 1 3.5 6.7A43.8 43.8 0 0 1 363 176.7z"/>
    </symbol>

</svg>
